<svg version="1.1" id="Layer_1" xmlns="http://www.w3.org/2000/svg" xmlns:xlink="http://www.w3.org/1999/xlink" x="0px" y="0px" viewBox="0 0 64 64" style="enable-background:new 0 0 64 64;" xml:space="preserve" fit="" height="100%" width="100%" preserveAspectRatio="xMidYMid meet" focusable="false">
<style type="text/css">
	.bg-icon-btc-st0{fill:#F7941F;}
	.bg-icon-btc-st1{fill:#FFFFFF;}
 </style>
<title>BTC</title>
<g>
	<path class="bg-icon-btc-st0" d="M60.1,39C56.3,54.6,40.5,64,25,60.1C9.4,56.3,0,40.5,3.9,25C7.7,9.4,23.5,0,39,3.9C54.6,7.7,64,23.5,60.1,39z"/>
	<path class="bg-icon-btc-st1" d="M44.8,27.9c0.6-3.9-2.4-5.9-6.4-7.3l1.3-5.2l-3.2-0.8l-1.3,5.1c-0.8-0.2-1.7-0.4-2.5-0.6l1.3-5.1l-3.2-0.8&#10;&#9;&#9;l-1.3,5.2c-0.7-0.2-1.4-0.3-2-0.5l0,0l-4.4-1.1l-0.8,3.4c0,0,2.4,0.5,2.3,0.6c1.3,0.3,1.5,1.2,1.5,1.9l-1.5,6&#10;&#9;&#9;c0.1,0,0.2,0.1,0.3,0.1c-0.1,0-0.2-0.1-0.3-0.1l-2.1,8.3c-0.2,0.4-0.6,1-1.5,0.8c0,0-2.3-0.6-2.3-0.6l-1.6,3.6l4.1,1&#10;&#9;&#9;c0.8,0.2,1.5,0.4,2.3,0.6l-1.3,5.3l3.2,0.8l1.3-5.2c0.9,0.2,1.7,0.5,2.5,0.7L27.9,49l3.2,0.8l1.3-5.3c5.4,1,9.5,0.6,11.2-4.3&#10;&#9;&#9;c1.4-4-0.1-6.2-2.9-7.7C42.8,32.1,44.4,30.7,44.8,27.9z M37.5,38.1c-1,4-7.6,1.8-9.8,1.3l1.7-7C31.6,32.9,38.5,33.9,37.5,38.1z&#10;&#9;&#9; M38.5,27.8c-0.9,3.6-6.4,1.8-8.2,1.3l1.6-6.4C33.6,23.2,39.4,24.1,38.5,27.8z"/>
</g>
</svg>