<svg xmlns="http://www.w3.org/2000/svg"  xmlns:svg="http://www.w3.org/2000/svg" x="0px" y="0px" viewBox="0 0 400 465"> <g>  <title>Copy</title>  <defs>   <style>.cls-1{fill:#616161;}</style>  </defs>  <g>   <path fill="#fff" class="cls-1" d="m264.50558,458.36161l-205.19298,0a45.46644,45.46644 0 0 1 -44.71048,-46.11443l0,-286.5142a45.46644,45.46644 0 0 1 44.71048,-46.11443c80.65641,-0.33333 161.31282,-0.66667 241.96923,-1a10.79963,10.79963 0 0 1 10.79963,10.79963l-2.8654,322.93701a45.46644,45.46644 0 0 1 -44.71048,46.00642zm-15,-41.59926a23.86719,23.86719 0 0 0 23.11121,-24.51517c-2.3782,-92.30712 -4.75639,-184.61425 -7.13459,-276.92137l-185.9536,1a23.86719,23.86719 0 0 0 -23.11123,24.51516l0,251.51422a23.86719,23.86719 0 0 0 23.11123,24.51515l169.97698,-0.10799z"/>   <rect fill="#ffffff" height="285" id="svg_8" width="235" x="120" y="75"/>   <path class="cls-1" fill="#fff" d="m339.27464,371.92308l-194.00972,0a42.98847,44.25283 0 0 1 -42.27369,-44.88351l0,-278.86643a42.98847,44.25283 0 0 1 42.27369,-44.88351l147.03895,0a10.21104,10.51136 0 0 1 10.21103,10.51136l0,37.21022a35.12597,36.15908 0 0 0 34.20698,37.10511l34.61542,0a10.21104,10.51136 0 0 1 10.21104,10.51136l0,228.517a42.98847,44.25283 0 0 1 -42.2737,44.7784zm-15,-41.02272a22.56639,23.23011 0 0 0 21.85162,-23.86079l0,-183.00565l-24.50649,0a55.54805,57.18181 0 0 1 -54.52694,-58.02271c0,-8.86458 0,-17.72917 0,-26.59375l-101.62369,0a22.56639,23.23011 0 0 0 -21.85162,23.86079l0,243.86643a22.56639,23.23011 0 0 0 21.85162,23.86079l158.8055,-0.10511z"/>   <path class="cls-1" d="m381.44623,74.66177l-28.99935,0a37.06607,38.15624 0 0 1 -36.35129,-38.89204l0,-30.1676l65.35064,69.05964z" id="svg_24"/>   <path class="cls-1" d="m381.44623,78.55098l-28.99935,0a40.84415,42.04545 0 0 1 -40.12938,-42.88636l0,-30.06249a3.77808,3.8892 0 0 1 6.53506,-2.73296l65.35065,69.16476a3.77808,3.8892 0 0 1 -2.75698,6.72727l0,-0.21022zm-61.26623,-63.06817l0,20.49715a33.28798,34.26704 0 0 0 32.4711,35.00284l20.42207,0l-52.89317,-55.49999z"/>  </g> </g></svg>