<?xml version="1.0" encoding="utf-8"?>
<!-- Generator: Adobe Illustrator 24.3.0, SVG Export Plug-In . SVG Version: 6.00 Build 0)  -->
<svg version="1.1" id="Artwork" xmlns="http://www.w3.org/2000/svg" xmlns:xlink="http://www.w3.org/1999/xlink" x="0px" y="0px"
	 viewBox="0 0 1373.8 249.3" style="enable-background:new 0 0 1373.8 249.3;" xml:space="preserve">
<g id="Logo">
	<g>
		<path d="M431,187.7c-10.2,4.9-23.6,7.4-40,7.4c-21.5,0-38.4-6.3-50.7-18.9c-12.3-12.6-18.5-29.5-18.5-50.5
			c0-22.4,6.9-40.6,20.7-54.5c13.8-13.9,31.8-20.9,53.9-20.9c13.7,0,25.2,1.7,34.6,5.2v30.4c-9.4-5.6-20.1-8.4-32-8.4
			c-13.1,0-23.8,4.1-31.8,12.4c-8.1,8.3-12.1,19.5-12.1,33.6c0,13.5,3.8,24.3,11.4,32.4c7.6,8,17.9,12.1,30.8,12.1
			c12.3,0,23.6-3,33.8-9L431,187.7L431,187.7z"/>
		<path d="M517.6,120.5c-3.7-2-8-3-13-3c-6.7,0-11.9,2.5-15.7,7.4c-3.8,4.9-5.7,11.6-5.7,20.1v47.7h-30.9v-100h30.9v18.6h0.4
			C488.5,97.7,497.3,91,510,91c3.3,0,5.8,0.4,7.6,1.2V120.5z"/>
		<path d="M627.2,92.7l-40.6,108c-9.8,26-24.5,39-44.1,39c-7.5,0-13.6-0.8-18.5-2.5v-24.6c4.1,2.4,8.6,3.6,13.4,3.6
			c7.9,0,13.5-3.7,16.6-11.2l5.3-12.4l-40.6-99.8h34.2l18.7,60.8c1.2,3.8,2.1,8.2,2.7,13.4h0.4c0.6-3.8,1.7-8.2,3.2-13.2l18.8-61
			h30.5V92.7z"/>
		<path d="M670.8,181.1h-0.4v57.6h-30.9v-146h30.9v15h0.4c7.6-11.7,18.3-17.5,32.1-17.5c13,0,23,4.4,30,13.3
			c7.1,8.9,10.6,21,10.6,36.3c0,16.7-4.1,30-12.4,40.1c-8.2,10.1-19.2,15.1-32.9,15.1C686.3,195.1,677.1,190.5,670.8,181.1z
			 M669.9,140.1v8c0,6.9,1.8,12.5,5.5,16.9c3.6,4.4,8.4,6.5,14.4,6.5c7,0,12.5-2.7,16.4-8.2c3.9-5.4,5.8-13.1,5.8-23.1
			c0-17.6-6.8-26.4-20.5-26.4c-6.3,0-11.5,2.4-15.5,7.2C671.9,125.9,669.9,132.2,669.9,140.1z"/>
		<path d="M824,191.5c-4.6,2.4-11.4,3.6-20.6,3.6c-21.7,0-32.6-11.3-32.6-33.9v-45.8h-16.2V92.7h16.2V71.1l30.8-8.8v30.4H824v22.8
			h-22.5v40.4c0,10.4,4.1,15.6,12.4,15.6c3.3,0,6.6-0.9,10.1-2.8V191.5z"/>
		<path d="M889,195.1c-16.7,0-29.8-4.7-39.3-14s-14.3-22-14.3-38c0-16.5,4.9-29.5,14.8-38.8c9.9-9.3,23.3-14,40.1-14
			c16.6,0,29.6,4.7,39.1,14c9.4,9.3,14.2,21.7,14.2,37.1c0,16.6-4.9,29.7-14.6,39.3C919.3,190.3,906,195.1,889,195.1z M889.8,113.9
			c-7.3,0-13,2.5-17,7.5s-6.1,12.1-6.1,21.3c0,19.2,7.7,28.8,23.2,28.8c14.8,0,22.2-9.9,22.2-29.6
			C912.2,123.2,904.7,113.9,889.8,113.9z"/>
		<path d="M1067.1,187.7c-10.2,4.9-23.6,7.4-40,7.4c-21.5,0-38.4-6.3-50.7-18.9c-12.3-12.6-18.5-29.5-18.5-50.5
			c0-22.4,6.9-40.6,20.7-54.5s31.8-20.9,53.8-20.9c13.7,0,25.2,1.7,34.6,5.2v30.4c-9.4-5.6-20.1-8.4-32-8.4
			c-13.1,0-23.8,4.1-31.8,12.4c-8.1,8.3-12.1,19.5-12.1,33.6c0,13.5,3.8,24.3,11.4,32.4c7.6,8,17.9,12.1,30.8,12.1
			c12.3,0,23.6-3,33.8-9L1067.1,187.7L1067.1,187.7z"/>
		<path d="M1171.6,192.7h-29.2v-14.4h-0.4c-6.7,11.2-16.6,16.8-29.8,16.8c-9.7,0-17.3-2.8-22.9-8.3s-8.3-12.8-8.3-22
			c0-19.4,11.5-30.6,34.5-33.6l27.1-3.6c0-10.9-5.9-16.4-17.8-16.4s-23.2,3.5-34,10.6V98.7c4.3-2.2,10.2-4.2,17.6-5.9
			c7.5-1.7,14.2-2.5,20.4-2.5c28.5,0,42.8,14.2,42.8,42.7L1171.6,192.7L1171.6,192.7z M1142.6,152.1v-6.7l-18.2,2.3
			c-10,1.3-15,5.8-15,13.6c0,3.5,1.2,6.4,3.7,8.6c2.4,2.2,5.7,3.4,9.9,3.4c5.8,0,10.5-2,14.2-6
			C1140.8,163.3,1142.6,158.2,1142.6,152.1z"/>
		<path d="M1189.5,190.1v-25c5.1,3.1,10.1,5.3,15.2,6.8c5,1.5,9.8,2.2,14.3,2.2c5.5,0,9.8-0.7,12.9-2.2c3.2-1.5,4.7-3.8,4.7-6.8
			c0-2-0.7-3.6-2.1-4.9c-1.4-1.3-3.3-2.4-5.5-3.4s-4.7-1.9-7.4-2.6c-2.7-0.8-5.2-1.7-7.7-2.6c-4-1.5-7.5-3.1-10.5-4.8
			s-5.6-3.7-7.6-6c-2.1-2.3-3.6-4.9-4.7-7.9s-1.6-6.5-1.6-10.6c0-5.6,1.2-10.4,3.7-14.5c2.4-4,5.7-7.3,9.8-9.9
			c4.1-2.6,8.7-4.5,14-5.7c5.2-1.2,10.7-1.8,16.4-1.8c4.4,0,8.9,0.3,13.5,1s9,1.7,13.5,3v23.8c-3.9-2.3-8.1-4-12.5-5.1
			c-4.5-1.1-8.8-1.7-13.1-1.7c-2,0-3.9,0.2-5.7,0.5c-1.8,0.4-3.4,0.9-4.7,1.6c-1.4,0.7-2.4,1.6-3.2,2.6c-0.8,1.1-1.2,2.3-1.2,3.7
			c0,1.8,0.6,3.4,1.8,4.7c1.2,1.3,2.7,2.4,4.6,3.4c1.9,0.9,4,1.8,6.3,2.5s4.6,1.5,6.9,2.3c4.1,1.4,7.8,3,11.1,4.7
			c3.3,1.7,6.2,3.7,8.5,6c2.4,2.3,4.2,4.9,5.5,8s1.9,6.7,1.9,10.9c0,5.9-1.3,11-3.9,15.2s-6,7.6-10.3,10.3
			c-4.3,2.6-9.2,4.6-14.7,5.8c-5.6,1.2-11.3,1.8-17.3,1.8C1209.1,195.1,1198.9,193.4,1189.5,190.1z"/>
		<path d="M1373.8,151.5h-65.2c1,14.5,10.2,21.8,27.4,21.8c11,0,20.7-2.6,29-7.8v22.3c-9.2,4.9-21.3,7.4-36,7.4
			c-16.1,0-28.7-4.5-37.6-13.4c-8.9-9-13.4-21.4-13.4-37.4c0-16.6,4.8-29.7,14.5-39.4c9.6-9.7,21.5-14.5,35.5-14.5
			c14.6,0,25.9,4.3,33.8,13c8,8.7,12,20.4,12,35.3L1373.8,151.5L1373.8,151.5z M1345.2,132.5c0-14.3-5.8-21.5-17.4-21.5
			c-4.9,0-9.2,2.1-12.8,6.2c-3.6,4.1-5.8,9.2-6.6,15.3H1345.2z"/>
	</g>
	<g>
		<polygon points="291.1,171 241.8,220.3 146.1,124.6 241.8,29 291.1,78.2 305.6,63.8 241.8,0 117.2,124.6 241.8,249.3 305.6,185.5 
					"/>
		<polygon points="177.4,167.5 124.6,220.3 29,124.6 124.6,29 177.4,81.7 191.9,67.3 124.6,0 0,124.6 124.6,249.3 191.9,182 		"/>
	</g>
</g>
</svg>
