<svg version="1.1" id="Layer_1" xmlns="http://www.w3.org/2000/svg" xmlns:xlink="http://www.w3.org/1999/xlink" x="0px" y="0px" viewBox="0 0 64 64" xml:space="preserve"><title>Menu</title><g>	<path class="st0" fill="#8e9091" d="M4.7,15.3h54.1c0.8,0,1.5-0.7,1.5-1.5s-0.7-1.5-1.5-1.5H4.7c-0.8,0-1.5,0.7-1.5,1.5S3.8,15.3,4.7,15.3z"/>	<path class="st0" fill="#8e9091" d="M58.7,30.3h-54c-0.8,0-1.5,0.7-1.5,1.5s0.7,1.5,1.5,1.5h54.1c0.8,0,1.5-0.7,1.5-1.5S59.6,30.3,58.7,30.3z"/>	<path class="st0" fill="#8e9091" d="M58.7,48.3h-54c-0.8,0-1.5,0.7-1.5,1.5s0.7,1.5,1.5,1.5h54.1c0.8,0,1.5-0.7,1.5-1.5S59.6,48.3,58.7,48.3z"/></g></svg>