<svg version="1.1" id="Layer_1" xmlns="http://www.w3.org/2000/svg" xmlns:xlink="http://www.w3.org/1999/xlink" x="0px" y="0px" viewBox="0 0 64 64" style="enable-background:new 0 0 64 64;" xml:space="preserve" fit="" height="100%" width="100%" preserveAspectRatio="xMidYMid meet" focusable="false">
<title>Menu</title>
<path class="st0" fill="#fff" d="M32,3C16,3,3,16,3,32s13,29,29,29s29-13,29-29S48,3,32,3z M32,59C17.1,59,5,46.9,5,32S17.1,5,32,5&#10;&#9;s27,12.1,27,27S46.9,59,32,59z"/>
<g>
	<path class="st0" fill="#fff" d="M18.1,26h27.8c0.8,0,1.5-0.5,1.5-1.2s-0.7-1.2-1.5-1.2H18.1c-0.8,0-1.5,0.5-1.5,1.2S17.2,26,18.1,26z"/>
	<path class="st0" fill="#fff" d="M45.8,30.8H18.1c-0.8,0-1.5,0.5-1.5,1.2c0,0.6,0.7,1.2,1.5,1.2h27.8c0.8,0,1.5-0.5,1.5-1.2&#10;&#9;&#9;C47.5,31.4,46.7,30.8,45.8,30.8z"/>
	<path class="st0" fill="#fff" d="M45.8,38H18.1c-0.8,0-1.5,0.5-1.5,1.2c0,0.6,0.7,1.2,1.5,1.2h27.8c0.8,0,1.5-0.5,1.5-1.2&#10;&#9;&#9;C47.5,38.6,46.7,38,45.8,38z"/>
</g>
</svg>