<svg id="Layer_1" fill="#fff" data-name="Layer 1" xmlns="http://www.w3.org/2000/svg" viewBox="0 0 64 64" fit="" height="100%" width="100%" preserveAspectRatio="xMidYMid meet" focusable="false">
<title>User</title>
<path class="cls-1" fill="#fff" d="M32,19.05A4.91,4.91,0,1,1,27.05,24,4.94,4.94,0,0,1,32,19.05M32,17a7,7,0,1,0,7,7,7,7,0,0,0-7-7Z"/><path class="cls-1" d="M38.84,34A2.12,2.12,0,0,1,41,36.16v5.7H23v-5.7A2.12,2.12,0,0,1,25.16,34H38.84m0-2H25.16A4.16,4.16,0,0,0,21,36.16v7.74H43V36.16A4.16,4.16,0,0,0,38.84,32Z"/>
<path class="cls-1" fill="#fff" d="M32,5A27,27,0,1,1,5,32,27,27,0,0,1,32,5m0-2A29,29,0,1,0,61,32,29,29,0,0,0,32,3Z"/></svg>