<svg id="Layer_1" data-name="Layer 1" xmlns="http://www.w3.org/2000/svg" viewBox="0 0 64 64" fit="" height="100%" width="100%" preserveAspectRatio="xMidYMid meet" focusable="false"><title>Add</title><path class="cls-1" fill="#000" d="M32,5A27,27,0,1,1,5,32,27,27,0,0,1,32,5m0-2A29,29,0,1,0,61,32,29,29,0,0,0,32,3Z"/><path class="cls-1" fill="#000" d="M32,51.32a1,1,0,0,1-1-1V13.68a1,1,0,0,1,2,0V50.32A1,1,0,0,1,32,51.32Z"/><path class="cls-1" fill="#000" d="M50.5,33h-37a1,1,0,0,1,0-2h37a1,1,0,0,1,0,2Z"/></svg>