<svg id="Layer_1" data-name="Layer 1" xmlns="http://www.w3.org/2000/svg" viewBox="0 0 64 64" height="20px" width="20px"><defs/><title>Receive</title><path class="cls-1" fill="#4d575f" d="M32,5A27,27,0,1,1,5,32,27,27,0,0,1,32,5m0-2A29,29,0,1,0,61,32,29,29,0,0,0,32,3Z"/><path class="cls-1" fill="#4d575f" d="M40.66,27.6a1,1,0,0,0-1.41.08L33,34.49V14a1,1,0,0,0-2,0V34.49l-6.25-6.81a1,1,0,0,0-1.41-.08A1,1,0,0,0,23.25,29l8,8.71a1,1,0,0,0,1.5,0l8-8.71A1,1,0,0,0,40.66,27.6Z"/><path class="cls-1" d="M42,48H22a3,3,0,0,1-3-3V26a3,3,0,0,1,3-3h4v2H22a1,1,0,0,0-1,1V45a1,1,0,0,0,1,1H42a1,1,0,0,0,1-1V26a1,1,0,0,0-1-1H38V23h4a3,3,0,0,1,3,3V45A3,3,0,0,1,42,48Z"/></svg>