<svg version="1.1" id="Layer_1" xmlns="http://www.w3.org/2000/svg" xmlns:xlink="http://www.w3.org/1999/xlink" x="0px" y="0px" viewBox="0 0 64 64" style="enable-background:new 0 0 64 64;" xml:space="preserve" fit="" height="100%" width="100%" preserveAspectRatio="xMidYMid meet" focusable="false">

<title>Search</title>
<path class="st0" d="M37.8,1C24.9,1,14.4,11.5,14.4,24.4c0,5.1,1.6,9.8,4.4,13.7L4.1,52.8c-2.3,2.3-2.3,6,0,8.3l0.1,0.1&#10;&#9;c2.3,2.3,6,2.3,8.3,0l15.5-15.5c3,1.4,6.3,2.1,9.7,2.1c12.9,0,23.4-10.5,23.4-23.4S50.7,1,37.8,1z M37.8,38.4&#10;&#9;c-7.7,0-13.9-6.2-13.9-13.9s6.2-13.9,13.9-13.9s13.9,6.2,13.9,13.9S45.5,38.4,37.8,38.4z"/>
</svg>