<svg id="Layer_1" data-name="Layer 1" xmlns="http://www.w3.org/2000/svg" viewBox="0 0 64 64" height="20px" width="20px"><defs/><title>Send</title><path class="cls-1" fill="#4d575f" d="M32,5A27,27,0,1,1,5,32,27,27,0,0,1,32,5m0-2A29,29,0,1,0,61,32,29,29,0,0,0,32,3Z"/><path class="cls-1" fill="#4d575f" d="M47,16a1,1,0,0,0,0-.1,1,1,0,0,0-.05-.25l0-.09a1,1,0,0,0-.19-.28h0l0,0a1,1,0,0,0-.26-.16l-.1,0a1,1,0,0,0-.26,0H46a1,1,0,0,0-.33.07h0l-34,14a1,1,0,0,0,0,1.85l14.62,5.85L31.58,50.4a1,1,0,0,0,.93.63h0a1,1,0,0,0,.93-.63L47,16.34h0s0,0,0,0A1,1,0,0,0,47,16Zm-4.94,2.69L26.74,34.83,14.63,30ZM32.51,47.31,28.16,36.23l15-15.82Z"/></svg>